<?xml version="1.0" standalone="no"?>
<!DOCTYPE svg PUBLIC "-//W3C//DTD SVG 20010904//EN"
 "http://www.w3.org/TR/2001/REC-SVG-20010904/DTD/svg10.dtd">
<svg version="1.0" xmlns="http://www.w3.org/2000/svg"
 width="500.000000pt" height="500.000000pt" viewBox="0 0 500.000000 500.000000"
 preserveAspectRatio="xMidYMid meet">
<metadata>
Created by potrace 1.11, written by Peter Selinger 2001-2013
</metadata>
<g transform="translate(0.000000,500.000000) scale(0.100000,-0.100000)"
fill="#000000" stroke="none">
<path d="M1087 4673 c-8 -16 16 -116 33 -138 13 -18 20 -64 11 -70 -11 -6 -44
26 -72 71 -11 18 -32 40 -47 50 -18 11 -23 13 -16 3 6 -8 11 -31 13 -51 1 -20
8 -56 16 -79 20 -54 19 -79 -2 -94 -16 -12 -16 -16 6 -62 22 -48 22 -52 7 -82
-14 -26 -22 -31 -53 -31 -22 0 -48 9 -67 23 -32 25 -86 55 -74 42 11 -11 -20
-38 -37 -31 -8 3 -25 22 -39 43 -13 21 -42 58 -65 83 -40 44 -40 45 -35 15 3
-16 9 -34 15 -41 5 -6 7 -13 4 -16 -3 -3 5 -16 17 -29 31 -33 50 -77 37 -84
-5 -4 -19 4 -30 17 l-20 23 18 -34 c23 -44 121 -144 196 -199 56 -43 115 -130
99 -147 -4 -5 -2 -5 5 -2 6 4 9 16 6 26 -7 26 9 32 46 18 30 -11 42 -39 21
-52 -6 -4 -4 -15 6 -30 14 -22 14 -24 -5 -34 -11 -6 -29 -11 -40 -11 -12 0
-21 -4 -21 -9 0 -12 -27 -8 -42 7 -8 8 -8 15 0 25 9 10 -3 9 -45 -5 -31 -11
-96 -24 -144 -30 l-88 -11 -15 -39 c-15 -35 -19 -38 -56 -38 -22 0 -40 -4 -40
-9 0 -10 -55 -9 -66 2 -11 11 -26 9 -19 -3 3 -5 1 -10 -4 -10 -6 0 -11 4 -11
8 0 10 -142 36 -161 30 -7 -2 4 -15 26 -28 l39 -24 -30 -8 c-16 -4 -62 -9
-101 -9 -59 -2 -71 -5 -62 -15 6 -7 14 -13 17 -12 4 1 39 -9 77 -22 39 -13 72
-25 75 -25 3 -1 12 -4 20 -8 8 -3 89 -25 180 -49 125 -33 166 -47 168 -60 5
-24 -37 -48 -96 -55 -29 -3 -49 -10 -46 -14 3 -5 -4 -9 -15 -9 -37 0 -48 -63
-15 -91 11 -9 12 -4 7 24 -4 30 -1 38 20 52 61 40 154 13 111 -32 -20 -20 -78
-53 -96 -53 -9 0 -31 -13 -49 -29 -17 -16 -47 -32 -66 -36 -18 -3 -32 -9 -29
-13 2 -4 -8 -8 -22 -8 -54 -3 -77 -8 -97 -21 -28 -19 -62 -16 -130 12 -33 14
-61 25 -62 25 -8 0 4 -49 16 -63 30 -35 130 -88 184 -97 30 -5 72 -13 93 -18
22 -6 68 -13 104 -17 80 -8 100 -13 100 -27 0 -16 -69 -78 -88 -78 -9 0 -25
-7 -36 -15 -18 -14 -18 -15 8 -26 34 -16 30 -31 -42 -138 -83 -122 -166 -190
-255 -206 -21 -4 -40 -11 -42 -16 -11 -17 69 -45 156 -53 14 -2 30 -5 35 -8 5
-4 29 -3 53 2 45 8 96 -5 85 -21 -11 -18 13 -8 32 12 19 22 84 53 92 45 7 -8
-94 -131 -106 -129 -5 1 -12 -10 -15 -25 -3 -15 -15 -38 -26 -51 -32 -37 -27
-47 23 -41 11 1 44 22 74 46 30 24 58 41 63 38 6 -3 10 -29 9 -57 0 -29 5
-107 11 -175 6 -68 7 -131 3 -140 -12 -27 -11 -36 6 -62 9 -14 23 -41 30 -60
18 -47 30 -61 49 -57 9 1 24 -6 34 -18 10 -11 22 -20 25 -21 42 -5 114 -70
127 -114 4 -14 16 -36 25 -50 10 -14 37 -65 61 -114 35 -71 45 -85 47 -65 2
13 7 29 12 34 9 11 6 78 -4 94 -4 6 -3 11 2 11 21 0 101 -91 112 -127 6 -21
18 -52 26 -69 15 -35 20 -138 14 -285 -3 -56 7 -74 30 -56 15 12 32 60 53 154
7 28 16 55 19 59 19 18 68 -59 68 -106 0 -15 7 -44 15 -64 8 -20 15 -55 15
-78 -1 -24 0 -69 0 -100 1 -32 -2 -63 -6 -70 -8 -13 -9 -17 -13 -48 0 -8 -24
-40 -52 -70 -69 -76 -76 -90 -45 -90 14 0 28 -5 31 -10 4 -6 29 -10 57 -9 44
2 55 7 82 38 100 112 92 106 119 94 22 -10 25 -17 20 -44 -2 -18 -11 -42 -19
-55 -8 -12 -14 -26 -13 -30 4 -24 -4 -34 -36 -50 -37 -17 -40 -21 -26 -43 5
-8 4 -26 -4 -45 -7 -17 -11 -42 -9 -55 8 -49 22 -42 26 11 2 20 6 34 9 33 3
-2 12 5 20 17 8 11 19 26 25 32 6 7 15 22 18 34 4 12 11 22 16 22 5 0 16 7 24
16 15 14 16 14 17 -5 1 -12 3 -25 4 -31 1 -5 3 -12 4 -15 0 -3 11 1 24 9 27
19 61 15 65 -7 2 -10 -1 -17 -6 -17 -6 0 -8 -9 -5 -20 3 -11 0 -20 -6 -20 -6
0 -11 -5 -11 -11 0 -6 -12 -26 -26 -45 l-26 -34 901 0 c495 0 901 3 901 8 0 4
-7 20 -15 36 -9 16 -15 47 -13 68 1 24 -3 43 -11 48 -8 4 -16 30 -18 57 l-5
50 84 5 c98 6 193 42 275 103 29 21 60 40 68 41 18 3 46 35 39 46 -2 3 9 26
25 50 41 62 69 127 87 205 11 50 22 74 42 90 24 19 29 20 43 7 14 -12 18 -12
34 6 19 21 18 21 -9 45 -30 26 -31 51 -3 69 13 8 24 7 45 -4 39 -22 43 -87 9
-124 -23 -24 -42 -86 -27 -86 3 0 16 7 28 16 13 9 37 18 55 21 18 2 42 6 54 8
12 2 23 -1 25 -6 2 -5 20 7 40 26 20 19 44 35 53 35 25 0 69 26 132 78 73 61
126 91 107 61 -4 -8 0 -9 15 -4 13 4 21 2 21 -5 0 -6 4 -8 10 -5 5 3 10 1 10
-6 0 -7 3 -10 6 -7 3 3 19 -7 36 -22 47 -43 47 -123 0 -232 -9 -21 -20 -38
-25 -38 -4 0 -6 -4 -2 -9 3 -5 0 -15 -7 -23 -7 -7 -14 -20 -15 -28 -1 -8 -11
-49 -22 -90 -15 -59 -19 -103 -17 -205 1 -128 2 -131 39 -207 22 -46 43 -78
52 -78 20 0 19 2 -14 52 -41 62 -60 125 -63 215 -4 145 17 246 83 389 25 54
33 87 37 151 l4 83 -34 34 c-23 23 -55 41 -94 52 -48 14 -63 24 -75 48 -9 17
-30 40 -47 51 -34 22 -69 90 -75 147 -3 31 -43 126 -58 138 -18 15 -29 52 -22
77 11 42 11 44 -15 101 -13 29 -26 67 -29 85 -2 18 -13 57 -24 88 -32 93 -28
108 46 178 36 33 69 61 73 61 5 0 8 10 9 23 0 12 4 50 8 85 6 44 5 62 -4 62
-6 0 -11 -9 -11 -19 0 -17 -4 -15 -34 11 -19 17 -45 36 -58 42 -48 24 -48 142
0 129 25 -6 65 14 56 29 -4 7 -3 8 5 4 12 -8 54 72 45 86 -3 4 -1 8 4 8 12 0
22 36 32 118 10 74 5 99 -21 107 -19 6 -64 -17 -53 -27 3 -4 -5 -9 -17 -13
-16 -5 -26 -2 -35 9 -9 13 -13 14 -18 4 -3 -7 -3 -2 1 12 9 35 5 76 -12 116
-8 20 -10 36 -4 39 18 12 8 47 -30 103 -21 32 -46 64 -55 71 -9 7 -16 22 -16
34 0 11 -10 36 -22 56 -26 41 -56 109 -100 226 -49 131 -57 161 -63 243 -3 42
-9 109 -14 147 -12 101 -6 255 11 291 17 35 13 70 -9 78 -19 8 -39 -17 -53
-65 -6 -20 -17 -42 -24 -49 -12 -10 -18 2 -32 71 -21 98 -39 122 -73 100 -20
-13 -18 -145 3 -234 9 -37 18 -116 21 -175 3 -59 8 -118 12 -132 10 -42 12
-70 5 -70 -10 1 -39 24 -40 33 -9 40 -23 68 -32 62 -5 -3 -6 4 -3 15 4 16 -1
21 -28 27 -19 4 -37 6 -41 5 -5 -1 -8 2 -8 7 0 5 -10 7 -22 3 -18 -4 -20 -2
-16 16 4 12 2 22 -3 22 -5 0 -9 5 -9 11 0 5 5 7 11 3 8 -4 8 0 0 15 -10 18 -9
21 6 21 14 0 15 2 4 9 -9 6 -10 11 -2 15 6 4 11 22 10 39 l-1 32 -14 -35 c-7
-19 -12 -26 -11 -15 2 11 -6 28 -16 37 -15 14 -20 33 -22 88 -1 39 2 73 6 76
9 5 -29 85 -45 96 -15 10 -32 -27 -45 -95 -34 -185 -95 -92 -96 145 0 106 -3
131 -17 148 -22 25 -54 26 -62 3 -4 -10 -10 -62 -13 -116 -5 -77 -3 -101 7
-107 9 -6 15 -31 16 -72 4 -130 16 -222 35 -263 17 -38 32 -80 36 -99 6 -33
13 -31 13 2 l0 32 35 -39 c19 -21 35 -47 35 -58 0 -29 34 -103 101 -218 31
-55 60 -116 64 -135 4 -19 14 -47 21 -62 8 -15 14 -31 13 -35 -1 -4 -1 -15 0
-23 1 -13 2 -13 11 0 8 12 12 11 32 -7 13 -12 25 -35 26 -50 2 -25 1 -26 -11
-8 -9 11 -16 14 -21 7 -11 -18 5 -43 28 -40 18 3 21 -2 22 -32 1 -19 5 -47 9
-62 5 -19 3 -28 -5 -28 -6 0 -8 -5 -5 -10 4 -6 10 -8 15 -5 13 8 16 -112 4
-147 -12 -37 -24 -26 -34 32 -3 19 -11 34 -16 33 -5 -1 -24 11 -42 25 -30 25
-33 32 -36 94 -2 37 -8 73 -14 80 -5 7 -12 31 -14 53 -9 98 -60 215 -148 345
-21 30 -43 74 -50 96 -8 25 -22 47 -36 55 -16 8 -26 25 -30 48 -3 20 -13 61
-21 91 -9 30 -17 72 -18 94 -1 21 -7 41 -13 45 -5 3 -15 24 -21 47 -6 22 -21
50 -35 63 -15 14 -26 38 -29 66 -8 55 -58 160 -99 206 -16 19 -39 53 -49 76
-21 46 -39 63 -39 39 0 -14 -3 -14 -21 -4 -39 23 -84 68 -84 85 0 18 -31 27
-33 9 -3 -32 -12 -78 -17 -86 -3 -5 -21 0 -40 13 -18 12 -31 26 -27 32 3 5 -2
4 -11 -4 -9 -7 -18 -11 -18 -7 -5 23 -4 32 4 43 15 20 -10 24 -119 20 -68 -2
-92 -6 -76 -11 17 -6 22 -14 18 -29 -2 -11 1 -26 9 -34 8 -7 12 -20 9 -28 -5
-12 -11 -12 -42 1 -229 99 -255 104 -561 103 -141 -1 -245 -3 -231 -5 14 -2
50 -9 80 -16 30 -6 106 -16 169 -22 l115 -11 13 -34 c11 -27 12 -33 1 -29 -7
3 -22 2 -33 -2 -11 -4 -34 -2 -54 6 -45 19 -80 10 -73 -19 2 -12 12 -30 20
-39 14 -17 13 -18 -11 -18 -15 0 -27 3 -27 8 0 4 -10 8 -22 9 -99 6 -181 21
-189 34 -5 7 -9 30 -9 49 0 33 -1 33 -17 17 -10 -10 -18 -23 -19 -30 0 -6 -2
-20 -2 -29 -2 -13 -11 -18 -29 -18 -34 0 -105 -24 -97 -33 3 -3 -3 -3 -15 0
-32 8 -28 -31 5 -45 20 -10 24 -10 18 0 -4 7 5 2 18 -12 18 -18 23 -29 16 -37
-6 -7 -7 -13 -2 -13 4 0 3 -5 -2 -10 -6 -6 -26 -11 -46 -12 -38 -1 -124 45
-188 102 -19 17 -46 39 -60 48 -14 9 -31 25 -38 34 -7 10 -18 18 -23 18 -16 0
0 -83 19 -100 27 -24 72 -81 72 -91 0 -5 -11 -9 -25 -9 -28 0 -75 19 -75 31 0
4 -9 11 -20 14 -54 17 -205 183 -226 247 -5 18 -39 25 -47 11z m1991 -125 c6
-13 17 -43 25 -68 13 -43 13 -46 -4 -47 -19 -2 -33 30 -42 100 -6 41 4 49 21
15z m-878 -59 c0 -5 -11 -9 -25 -9 -14 0 -25 4 -25 9 0 5 11 9 25 9 14 0 25
-4 25 -9z m-425 -88 c-3 -5 4 -12 15 -16 21 -7 26 -30 12 -53 -6 -8 -14 -1
-25 24 -15 31 -16 54 -1 54 3 0 3 -4 -1 -9z m2190 -381 c12 -13 22 -52 30
-120 8 -55 23 -132 35 -171 12 -38 23 -75 24 -82 2 -7 8 -23 14 -37 27 -65 30
-77 21 -93 -8 -13 -4 -23 13 -40 62 -62 157 -241 176 -332 12 -57 2 -133 -21
-150 -8 -5 -18 -25 -22 -43 -7 -33 -29 -62 -46 -62 -14 0 0 69 20 102 14 24
16 40 8 105 -4 43 -9 89 -10 103 -2 14 -19 57 -39 95 -53 104 -60 116 -96 164
-18 25 -31 50 -28 57 3 7 2 14 -2 16 -11 5 -73 211 -92 308 -41 206 -40 195
-9 199 3 1 14 -8 24 -19z m-3038 -270 c-1 -21 -10 -18 -13 5 -1 8 2 15 6 15 5
0 8 -9 7 -20z m53 0 c0 -5 -2 -10 -4 -10 -3 0 -8 5 -11 10 -3 6 -1 10 4 10 6
0 11 -4 11 -10z m1524 -1084 c34 -14 54 -42 21 -29 -10 3 -15 0 -13 -8 2 -10
-14 -15 -62 -19 l-65 -5 57 -13 c59 -14 70 -34 26 -45 -20 -6 -20 -7 -5 -31
15 -22 15 -25 0 -38 -8 -7 -39 -18 -67 -24 -69 -14 -122 0 -168 44 -21 20 -38
34 -39 32 0 -3 -2 -13 -4 -22 -4 -20 44 -64 84 -80 38 -14 119 -11 226 8 85
15 121 13 178 -13 32 -14 53 -29 47 -33 -6 -4 -2 -14 10 -28 12 -12 16 -22 10
-22 -6 0 -9 -4 -5 -10 3 -5 12 -7 19 -4 8 3 17 0 22 -7 5 -9 -1 -10 -27 -5
-32 6 -33 6 -16 -11 15 -15 23 -16 76 -5 54 11 64 11 95 -6 34 -18 35 -20 17
-36 -9 -9 -21 -13 -24 -9 -4 3 -7 2 -7 -4 0 -6 35 -29 78 -52 42 -22 69 -41
60 -41 -22 0 -23 -16 -2 -24 8 -3 12 -10 9 -16 -7 -12 54 -52 171 -111 80 -40
84 -44 60 -52 -28 -9 -35 -27 -11 -27 8 0 15 -7 15 -15 0 -8 14 -17 35 -21 22
-4 53 -23 82 -50 25 -24 48 -42 51 -39 3 2 22 -11 43 -30 21 -19 45 -32 53
-29 10 4 12 -1 9 -20 -4 -21 -1 -26 15 -26 24 0 92 -38 92 -51 0 -5 -5 -9 -10
-9 -7 0 -7 -6 0 -19 5 -11 10 -31 10 -45 0 -18 6 -26 18 -27 10 0 12 -3 4 -6
-6 -2 -10 -9 -6 -14 3 -5 -2 -9 -10 -9 -27 0 -18 -29 13 -45 25 -12 50 -51 39
-59 -42 -31 -70 -47 -64 -38 4 7 2 12 -3 12 -6 0 -11 -4 -11 -9 0 -20 -91 -3
-133 24 l-42 28 28 -30 c26 -28 36 -50 18 -38 -5 3 -18 -8 -28 -25 -15 -27
-22 -30 -48 -24 -16 3 -48 15 -70 25 -22 11 -32 17 -21 14 12 -4 7 5 -15 26
-18 17 -48 33 -66 36 -42 7 -68 39 -83 104 -10 40 -15 48 -22 35 -5 -9 -16
-16 -25 -16 -13 0 -14 -3 -5 -12 8 -8 3 -21 -21 -52 -17 -23 -34 -43 -37 -46
-3 -3 -13 -18 -22 -35 -16 -29 -57 -47 -59 -26 -1 6 -3 20 -4 31 -1 11 -3 29
-4 39 -1 13 -11 22 -31 26 -16 4 -30 10 -30 13 0 4 -13 22 -29 40 -16 18 -38
53 -48 77 -13 33 -28 50 -58 65 -36 19 -85 77 -85 101 0 5 -4 9 -10 9 -5 0
-10 7 -10 15 0 9 -11 20 -24 25 -14 5 -40 26 -58 46 -18 21 -41 46 -50 56 -10
10 -18 22 -18 28 0 5 -9 14 -20 20 -11 6 -18 15 -15 20 3 5 -7 17 -22 27 -15
10 -33 22 -39 28 -6 5 -26 21 -44 35 -18 14 -35 27 -39 30 -12 9 -31 50 -31
65 0 8 -5 15 -11 15 -12 0 -59 50 -59 62 0 3 -11 5 -24 4 -29 -4 -56 25 -56
59 0 13 -4 27 -10 30 -5 3 -10 14 -10 25 0 10 -6 20 -13 23 -17 6 -21 75 -6
93 6 7 12 32 14 55 1 23 7 44 11 48 5 3 9 12 10 19 2 28 5 31 18 26 7 -3 16 2
20 11 4 11 12 14 26 10 12 -4 20 -2 20 5 0 8 10 10 25 8 18 -4 25 -1 25 9 0
11 9 14 35 11 24 -3 36 1 40 10 7 18 84 11 139 -12z m-1673 -838 c1 -18 6 -41
14 -59 4 -11 0 -18 -13 -21 -16 -5 -21 0 -25 25 -2 17 -2 39 1 49 5 20 22 24
23 6z m3130 -61 c23 -7 131 -230 123 -252 -5 -13 -4 -16 4 -11 16 10 16 -32 0
-67 -18 -37 -29 -34 -22 6 4 27 3 29 -5 10 -6 -13 -16 -23 -23 -23 -8 0 -9 3
-3 8 6 4 10 17 11 30 0 18 -5 22 -28 22 -22 0 -28 4 -28 23 0 12 7 35 15 51
16 31 11 50 -11 42 -15 -6 -34 22 -27 42 3 6 0 12 -6 12 -6 0 -11 11 -11 24 0
14 -4 28 -10 31 -5 3 -10 15 -10 26 0 10 -4 19 -10 19 -5 0 -10 7 -10 15 0 11
4 13 18 6 9 -5 24 -12 33 -14z m-763 -364 c26 -27 47 -51 48 -55 1 -5 3 -10 4
-13 1 -3 3 -10 4 -17 0 -6 15 -15 33 -20 18 -5 34 -17 38 -28 5 -15 15 -20 42
-20 30 0 43 -8 87 -55 28 -30 57 -55 64 -55 6 0 12 -4 12 -8 0 -21 99 -57 212
-76 21 -4 37 -12 35 -18 -2 -14 33 -17 51 -4 7 5 15 6 19 2 3 -3 15 2 26 11
12 11 17 12 12 4 -6 -11 -5 -12 6 -5 8 5 19 9 24 9 6 1 9 7 7 15 -2 8 0 12 3
8 4 -4 20 -1 36 7 34 18 43 8 24 -28 -13 -25 -11 -31 6 -29 12 2 -3 -72 -21
-108 -53 -105 -179 -234 -272 -278 -88 -43 -241 -57 -269 -24 -27 32 -31 43
-19 57 9 11 4 18 -25 37 -30 19 -43 39 -69 103 -24 60 -31 87 -25 108 8 31
-11 59 -50 72 -29 9 -63 60 -66 102 -2 20 -9 39 -16 43 -7 5 -10 22 -7 43 4
35 3 36 -46 52 -53 18 -75 38 -76 70 0 25 91 176 102 169 4 -3 9 1 9 8 1 7 4
3 6 -9 2 -13 25 -44 51 -70z"/>
<path d="M3206 1928 c3 -4 9 -8 15 -8 5 0 9 4 9 8 0 5 -7 9 -15 9 -8 0 -12 -4
-9 -9z"/>
<path d="M2973 1562 c-14 -9 -6 -52 9 -52 6 0 8 6 5 14 -3 8 -1 17 6 19 8 3 9
8 2 15 -6 6 -16 8 -22 4z"/>
<path d="M3010 1566 c0 -2 7 -6 15 -10 8 -3 15 -1 15 4 0 6 -7 10 -15 10 -8 0
-15 -2 -15 -4z"/>
<path d="M643 4450 c2 -11 9 -26 17 -33 10 -10 11 -9 5 2 -6 11 -4 13 8 8 14
-5 15 -3 5 18 -14 30 -39 33 -35 5z"/>
<path d="M3706 4187 c3 -10 9 -15 12 -12 3 3 0 11 -7 18 -10 9 -11 8 -5 -6z"/>
<path d="M3803 3974 c9 -3 14 -10 11 -16 -4 -6 -1 -9 5 -7 22 8 16 24 -9 26
-15 1 -18 0 -7 -3z"/>
<path d="M3769 3243 c-13 -16 -12 -17 4 -4 9 7 17 15 17 17 0 8 -8 3 -21 -13z"/>
<path d="M3772 3164 c10 -10 20 -15 24 -12 3 4 -5 12 -18 18 -22 12 -22 12 -6
-6z"/>
<path d="M530 2354 c0 -8 5 -12 10 -9 6 3 10 10 10 16 0 5 -4 9 -10 9 -5 0
-10 -7 -10 -16z"/>
<path d="M1105 1354 c4 -38 22 -67 36 -58 13 7 11 54 -2 54 -5 0 -7 5 -3 11 6
10 -11 28 -28 29 -3 0 -5 -16 -3 -36z"/>
</g>
</svg>
